Coordinates
version=1
nRows=54
nColumns=12
inDegrees=yes

Units are S.I. units (second, meters, Newtons, ...)
Angles are in degrees

endheader
time	SC_y	SC_z	SC_x	AC_y	AC_z	AC_x	GH_y	GH_z	GH_yy	EL_x	PS_y
       0.0              -16.82           24.0          57.56          64.63         -3.717          1.044         -11.84           50.3          142.9          75.59          128.6
   0.04711              -16.82           24.0          57.56          64.62         -3.716          1.043         -11.82           50.3          142.9          75.59          128.6
   0.09423              -16.82          24.01          57.56          64.62         -3.715          1.042          -11.8           50.3          142.8           75.6          128.6
    0.1413              -16.82          24.01          57.56          64.61         -3.714          1.041         -11.78           50.3          142.8          75.61          128.6
    0.1885              -16.82          24.01          57.56          64.61         -3.712          1.041         -11.76          50.29          142.8          75.61          128.6
    0.2356              -16.82          24.01          57.56           64.6         -3.711           1.04         -11.74          50.29          142.7          75.62          128.6
    0.2827              -16.82          24.01          57.56           64.6          -3.71          1.039         -11.71          50.28          142.7          75.63          128.6
    0.3298              -16.82          24.02          57.56          64.59         -3.708          1.038         -11.69          50.28          142.7          75.64          128.6
    0.3769              -16.82          24.02          57.56          64.59         -3.706          1.037         -11.66          50.28          142.6          75.65          128.6
     0.424              -16.82          24.02          57.56          64.58         -3.704          1.036         -11.63          50.27          142.6          75.66          128.6
    0.4711              -16.82          24.02          57.55          64.57         -3.703          1.034         -11.59          50.27          142.6          75.67          128.6
    0.5183              -16.82          24.03          57.55          64.57           -3.7          1.033         -11.56          50.26          142.5          75.69          128.6
    0.5654              -16.82          24.03          57.55          64.56         -3.698          1.032         -11.52          50.26          142.5           75.7          128.6
    0.6125              -16.82          24.03          57.55          64.55         -3.696           1.03         -11.48          50.25          142.4          75.72          128.6
    0.6596              -16.82          24.04          57.55          64.54         -3.693          1.028         -11.43          50.24          142.4          75.73          128.6
    0.7067              -16.82          24.04          57.55          64.53          -3.69          1.027         -11.39          50.24          142.3          75.75          128.6
    0.7538              -16.82          24.05          57.54          64.52         -3.687          1.025         -11.33          50.23          142.2          75.77          128.6
    0.8009              -16.82          24.05          57.54           64.5         -3.684          1.023         -11.27          50.22          142.2          75.79          128.6
    0.8481              -16.82          24.06          57.54          64.49          -3.68           1.02         -11.21          50.21          142.1          75.81          128.6
    0.8952              -16.82          24.06          57.54          64.48         -3.676          1.018         -11.14           50.2          142.0          75.84          128.5
    0.9423              -16.82          24.07          57.53          64.46         -3.672          1.015         -11.07          50.19          141.9          75.86          128.5
    0.9894              -16.82          24.08          57.53          64.44         -3.667          1.012         -10.98          50.18          141.8          75.89          128.5
     1.037              -16.82          24.08          57.53          64.42         -3.662          1.008         -10.89          50.16          141.7          75.93          128.5
     1.084              -16.82          24.09          57.52           64.4         -3.656          1.005         -10.79          50.15          141.5          75.96          128.5
     1.131              -16.82           24.1          57.52          64.37         -3.649            1.0         -10.68          50.13          141.4           76.0          128.5
     1.178              -16.82          24.11          57.51          64.35         -3.642         0.9957         -10.55          50.11          141.2          76.05          128.5
     1.225              -16.82          24.13          57.51          64.32         -3.634         0.9904         -10.41          50.09          141.1           76.1          128.5
     1.272              -16.81          24.14           57.5          64.28         -3.624         0.9845         -10.25          50.07          140.9          76.16          128.5
     1.319              -16.81          24.16          57.49          64.24         -3.614         0.9779         -10.07          50.04          140.6          76.22          128.5
     1.366              -16.81          24.17          57.48           64.2         -3.602         0.9703         -9.866          50.01          140.4           76.3          128.5
     1.413              -16.81          24.19          57.48          64.15         -3.588         0.9616         -9.633          49.97          140.1          76.38          128.5
     1.461              -16.81          24.22          57.46          64.09         -3.573         0.9517         -9.366          49.93          139.7          76.47          128.5
     1.508              -16.81          24.24          57.45          64.02         -3.555         0.9402         -9.057          49.89          139.3          76.59          128.5
     1.555              -16.81          24.28          57.44          63.94         -3.534         0.9269         -8.698          49.83          138.9          76.71          128.5
     1.602              -16.81          24.31          57.42          63.85          -3.51         0.9113         -8.278          49.77          138.4          76.87          128.5
     1.649               -16.8          24.36           57.4          63.75         -3.481         0.8929         -7.783           49.7          137.7          77.04          128.5
     1.696               -16.8          24.41          57.38          63.62         -3.447         0.8711         -7.195          49.61          137.0          77.25          128.5
     1.743               -16.8          24.47          57.35          63.46         -3.406         0.8449          -6.49          49.51          136.1          77.51          128.4
      1.79              -16.79          24.54          57.31          63.28         -3.356         0.8132         -5.637          49.38          135.0          77.81          128.4
     1.837              -16.79          24.63          57.27          63.05         -3.295         0.7745         -4.594          49.22          133.7          78.19          128.4
     1.885              -16.78          24.75          57.22          62.77         -3.221         0.7268         -3.308          49.03          132.1          78.65          128.4
     1.932              -16.78          24.88          57.15          62.42         -3.127         0.6672         -1.704          48.79          130.0          79.23          128.3
     1.979              -16.77          25.06          57.07          61.99          -3.01         0.5922         0.3159          48.49          127.5          79.95          128.3
     2.026              -16.76          25.28          56.97          61.43          -2.86         0.4968          2.884          48.11          124.2          80.87          128.2
     2.073              -16.74          25.57          56.84          60.71         -2.669         0.3747          6.172          47.62          120.1          82.05          128.2
      2.12              -16.72          25.94          56.67           59.8         -2.424         0.2181          10.39          46.99          114.7          83.57          128.1
     2.167               -16.7          26.41          56.45          58.62          -2.11        0.01801          15.78          46.18          107.9           85.5          128.0
     2.214              -16.67           27.0          56.17          57.15         -1.716        -0.2336          22.56          45.17          99.33          87.94          127.8
     2.261              -16.63          27.72          55.84          55.36         -1.236        -0.5402          30.81          43.94          88.88           90.9          127.6
     2.309              -16.59          28.55          55.45          53.28         -0.679        -0.8956          40.38          42.51          76.76          94.34          127.4
     2.356              -16.54          29.45          55.03          51.02       -0.07617          -1.28          50.75          40.96          63.64          98.06          127.2
     2.403              -16.49          30.35          54.62          48.77         0.5267         -1.665          61.11          39.42          50.52          101.8          127.0
      2.45              -16.45          31.19          54.23          46.69          1.083         -2.021          70.68          37.99          38.41          105.2          126.8
     2.497              -16.41          31.91          53.89           44.9          1.564         -2.327          78.94          36.76          27.95          108.2          126.6
